<svg width="340" height="64" viewBox="0 0 340 64" fill="none" xmlns="http://www.w3.org/2000/svg">
<path fill-rule="evenodd" clip-rule="evenodd" d="M62.0807 0C63.1411 0 64.0007 0.859613 64.0007 1.92V17.3246C64.0007 18.465 62.622 19.036 61.8156 18.2297L45.771 2.1851C44.9647 1.37874 45.5358 0 46.6761 0H62.0807ZM24.0487 2.1851C23.2424 1.37874 23.8135 0 24.9538 0H33.255C33.5945 0 33.92 0.134856 34.1601 0.374903L63.6258 29.8407C63.8659 30.0807 64.0007 30.4063 64.0007 30.7458V39.0469C64.0007 40.1873 62.622 40.7584 61.8156 39.952L24.0487 2.1851ZM12.4378 0.374903C12.1977 0.134857 11.8721 0 11.5327 0H1.92073C0.860346 0 0.000732422 0.859616 0.000732422 1.92V19.2C0.000732422 19.9069 0.573807 20.48 1.28073 20.48H3.84073C10.2031 20.48 15.3607 25.6377 15.3607 32C15.3607 38.3623 10.2031 43.52 3.84073 43.52H1.28073C0.573808 43.52 0.000732422 44.0931 0.000732422 44.8V62.08C0.000732422 63.1404 0.860348 64 1.92074 64H19.2007C19.9077 64 20.4807 63.4269 20.4807 62.72V60.16C20.4807 53.7977 25.6384 48.64 32.0007 48.64C38.3631 48.64 43.5207 53.7977 43.5207 60.16V62.72C43.5207 63.4269 44.0938 64 44.8007 64H62.0807C63.1411 64 64.0007 63.1404 64.0007 62.08V52.4681C64.0007 52.1286 63.8659 51.803 63.6258 51.563L12.4378 0.374903Z" fill="url(#paint0_linear_29_591)"/>
<path d="M296.341 38.7645C296.341 36.4899 296.575 34.3518 297.043 32.3501C297.511 30.3485 298.18 28.5093 299.051 26.8326C299.935 25.1428 301.007 23.6351 302.268 22.3093C303.529 20.9835 304.952 19.8657 306.538 18.9559C308.123 18.033 309.858 17.3312 311.743 16.8503C313.628 16.3563 315.63 16.1094 317.748 16.1094C319.867 16.1094 321.868 16.3563 323.753 16.8503C325.638 17.3312 327.373 18.033 328.959 18.9559C330.544 19.8657 331.968 20.9835 333.228 22.3093C334.489 23.6351 335.555 25.1428 336.426 26.8326C337.31 28.5093 337.986 30.3485 338.454 32.3501C338.921 34.3518 339.155 36.4899 339.155 38.7645C339.155 41.0391 338.921 43.1838 338.454 45.1984C337.986 47.2001 337.31 49.0393 336.426 50.716C335.555 52.3927 334.483 53.894 333.209 55.2197C331.948 56.5455 330.525 57.6698 328.939 58.5927C327.366 59.5155 325.638 60.2174 323.753 60.6983C321.881 61.1922 319.88 61.4392 317.748 61.4392C315.63 61.4392 313.628 61.1922 311.743 60.6983C309.858 60.2174 308.123 59.5155 306.538 58.5927C304.965 57.6698 303.542 56.5455 302.268 55.2197C301.007 53.894 299.935 52.3927 299.051 50.716C298.18 49.0393 297.511 47.2001 297.043 45.1984C296.575 43.1838 296.341 41.0391 296.341 38.7645ZM306.167 38.7645C306.167 40.9612 306.427 42.9303 306.947 44.672C307.48 46.4007 308.247 47.8695 309.248 49.0783C310.248 50.2741 311.464 51.1904 312.893 51.8273C314.336 52.4642 315.961 52.7826 317.768 52.7826C319.574 52.7826 321.193 52.4707 322.622 51.8468C324.052 51.2099 325.261 50.2871 326.249 49.0783C327.25 47.8695 328.01 46.4007 328.53 44.672C329.063 42.9303 329.329 40.9612 329.329 38.7645C329.329 36.5679 329.063 34.6052 328.53 32.8765C328.01 31.1348 327.25 29.6661 326.249 28.4703C325.261 27.2615 324.052 26.3451 322.622 25.7212C321.193 25.0844 319.574 24.7659 317.768 24.7659C315.961 24.7659 314.336 25.0844 312.893 25.7212C311.464 26.3451 310.248 27.2615 309.248 28.4703C308.247 29.6661 307.48 31.1348 306.947 32.8765C306.427 34.6052 306.167 36.5679 306.167 38.7645Z" fill="#EBF1FF"/>
<path d="M273.169 16.1094C276.21 16.1094 278.92 16.4473 281.299 17.1232C283.678 17.7991 285.686 18.7674 287.323 20.0282C288.961 21.289 290.202 22.8227 291.047 24.6294C291.905 26.4231 292.334 28.4378 292.334 30.6734H282.722C282.722 29.6206 282.521 28.6717 282.118 27.8269C281.715 26.982 281.11 26.2607 280.305 25.6628C279.512 25.0649 278.524 24.6034 277.341 24.2785C276.171 23.9535 274.82 23.7911 273.286 23.7911C271.934 23.7911 270.693 23.9211 269.562 24.181C268.431 24.428 267.463 24.7854 266.657 25.2533C265.851 25.7212 265.227 26.2801 264.785 26.93C264.343 27.5799 264.122 28.3013 264.122 29.0942C264.122 29.7181 264.246 30.264 264.493 30.7319C264.753 31.1868 265.104 31.5897 265.546 31.9407C266.001 32.2916 266.533 32.5906 267.144 32.8375C267.755 33.0845 268.412 33.3055 269.114 33.5004C269.828 33.6824 270.576 33.8384 271.356 33.9683C272.149 34.0983 272.941 34.2348 273.734 34.3778L276.6 34.8457C277.783 35.0407 279.024 35.2616 280.324 35.5086C281.637 35.7555 282.924 36.0805 284.184 36.4834C285.458 36.8733 286.674 37.3738 287.83 37.9847C289 38.5826 290.02 39.3364 290.891 40.2463C291.775 41.1561 292.477 42.2479 292.997 43.5217C293.53 44.7955 293.796 46.2902 293.796 48.006C293.796 50.1506 293.361 52.0548 292.49 53.7185C291.632 55.3822 290.365 56.786 288.688 57.9298C287.024 59.0736 284.964 59.9444 282.508 60.5423C280.051 61.1402 277.224 61.4392 274.027 61.4392C270.686 61.4392 267.749 61.1077 265.214 60.4448C262.68 59.795 260.561 58.8396 258.858 57.5788C257.169 56.305 255.888 54.7453 255.017 52.8996C254.16 51.0539 253.731 48.9288 253.731 46.5242H263.343C263.343 47.681 263.557 48.7078 263.986 49.6047C264.415 50.5015 265.071 51.2554 265.955 51.8663C266.839 52.4772 267.944 52.9386 269.27 53.2506C270.608 53.5625 272.175 53.7185 273.968 53.7185C275.58 53.7185 277.016 53.595 278.277 53.3481C279.538 53.1011 280.604 52.7437 281.474 52.2757C282.358 51.7948 283.028 51.2164 283.483 50.5405C283.95 49.8516 284.184 49.0718 284.184 48.2009C284.184 47.486 284.048 46.8687 283.775 46.3487C283.515 45.8288 283.151 45.3739 282.683 44.984C282.215 44.594 281.656 44.2561 281.007 43.9701C280.357 43.6842 279.642 43.4372 278.862 43.2293C278.082 43.0083 277.25 42.8198 276.366 42.6639C275.495 42.4949 274.599 42.3259 273.676 42.1569L270.79 41.65C269.724 41.4681 268.581 41.2601 267.359 41.0261C266.137 40.7922 264.922 40.4867 263.713 40.1098C262.504 39.7199 261.347 39.2389 260.243 38.667C259.138 38.0821 258.156 37.3673 257.299 36.5224C256.454 35.6646 255.778 34.6507 255.271 33.4809C254.764 32.2981 254.511 30.9009 254.511 29.2891C254.511 27.2745 254.939 25.4548 255.797 23.8301C256.655 22.2053 257.883 20.8211 259.482 19.6773C261.094 18.5335 263.05 17.6561 265.351 17.0452C267.664 16.4213 270.27 16.1094 273.169 16.1094Z" fill="#EBF1FF"/>
<path d="M217.51 39.2324C217.51 41.3901 217.79 43.3333 218.348 45.062C218.92 46.7777 219.733 48.2399 220.786 49.4487C221.838 50.6575 223.112 51.5868 224.607 52.2367C226.115 52.8736 227.804 53.1921 229.676 53.1921C230.95 53.1921 232.126 53.0426 233.205 52.7437C234.284 52.4317 235.259 51.9703 236.129 51.3594C237 50.7355 237.774 49.9686 238.449 49.0588C238.982 48.3312 239.451 47.5147 239.854 46.6093H249.413C248.84 48.7407 248.006 50.6685 246.911 52.3927C245.702 54.3164 244.227 55.9541 242.485 57.3059C240.757 58.6446 238.787 59.665 236.578 60.3669C234.368 61.0817 231.983 61.4392 229.423 61.4392C226.212 61.4392 223.294 60.8933 220.669 59.8015C218.043 58.7096 215.788 57.1694 213.903 55.1807C212.019 53.1921 210.563 50.8005 209.536 48.006C208.509 45.2114 207.996 42.118 207.996 38.7255C207.996 35.3461 208.503 32.2721 209.516 29.5036C210.543 26.7221 211.986 24.337 213.845 22.3483C215.703 20.3597 217.933 18.8259 220.532 17.7471C223.132 16.6553 226.011 16.1094 229.169 16.1094C232.302 16.1094 235.135 16.6423 237.67 17.7081C240.204 18.7739 242.368 20.2882 244.162 22.2508C245.969 24.2005 247.359 26.5661 248.334 29.3476C249.309 32.1162 249.797 35.2096 249.797 38.628C249.797 39.135 249.784 39.6419 249.758 40.1488C249.745 40.6557 249.706 41.1886 249.641 41.7475H214.722V34.7287H244.708L240.263 41.65C240.302 41.1821 240.328 40.7077 240.341 40.2268C240.367 39.7329 240.38 39.2519 240.38 38.784C240.38 36.4314 240.133 34.3583 239.639 32.5646C239.158 30.7579 238.443 29.2436 237.494 28.0219C236.558 26.7871 235.395 25.8577 234.004 25.2338C232.626 24.5969 231.034 24.2785 229.228 24.2785C227.395 24.2785 225.757 24.5969 224.314 25.2338C222.872 25.8707 221.643 26.8001 220.63 28.0219C219.629 29.2306 218.855 30.7059 218.309 32.4476C217.777 34.1893 217.51 36.152 217.51 38.3356V39.2324Z" fill="#EBF1FF"/>
<path d="M193.535 40.1884V17.2798H203.322V60.27H193.535V47.3827L193.593 47.3437C193.112 49.5793 192.41 51.5745 191.488 53.3292C190.565 55.0709 189.44 56.5461 188.115 57.7549C186.789 58.9507 185.275 59.8606 183.572 60.4845C181.869 61.1213 180.017 61.4398 178.015 61.4398C175.624 61.4398 173.499 61.0044 171.64 60.1335C169.781 59.2497 168.215 57.9694 166.941 56.2927C165.681 54.6159 164.712 52.5558 164.036 50.1122C163.373 47.6686 163.042 44.8936 163.042 41.7871V17.2798H172.829V40.8123C172.829 42.814 173.024 44.5622 173.414 46.0569C173.817 47.5386 174.422 48.7799 175.227 49.7808C176.046 50.7816 177.06 51.5355 178.269 52.0424C179.478 52.5363 180.894 52.7833 182.519 52.7833C183.689 52.7833 184.768 52.6598 185.756 52.4128C186.743 52.1529 187.647 51.7824 188.466 51.3015C189.284 50.8206 190.006 50.2227 190.63 49.5078C191.267 48.7929 191.8 47.9676 192.228 47.0317C192.657 46.0959 192.982 45.0561 193.203 43.9123C193.424 42.7685 193.535 41.5272 193.535 40.1884Z" fill="#EBF1FF"/>
<path d="M157.691 2.56006V60.2703H147.903V2.56006H157.691Z" fill="#EBF1FF"/>
<path d="M99.8949 32.3894C99.8949 34.4951 100.057 36.4512 100.382 38.2579C100.72 40.0646 101.208 41.7088 101.845 43.1906C102.494 44.6723 103.287 45.9851 104.223 47.1289C105.159 48.2597 106.231 49.2151 107.44 49.9949C108.662 50.7748 110.014 51.3662 111.495 51.7691C112.977 52.1591 114.576 52.354 116.292 52.354C118.371 52.354 120.249 52.0551 121.926 51.4572C123.616 50.8593 125.098 49.9689 126.371 48.7861C127.645 47.6033 128.711 46.1346 129.569 44.3799C130.44 42.6122 131.083 40.565 131.499 38.2384H141.735C141.176 41.8518 140.175 45.0948 138.732 47.9673C137.289 50.8268 135.47 53.2574 133.273 55.259C131.09 57.2607 128.561 58.7944 125.689 59.8603C122.829 60.9131 119.691 61.4395 116.272 61.4395C113.66 61.4395 111.177 61.121 108.824 60.4841C106.485 59.8603 104.327 58.9569 102.352 57.7741C100.389 56.5913 98.6147 55.1486 97.0289 53.4458C95.4562 51.7301 94.1174 49.8 93.0126 47.6553C91.9078 45.4977 91.063 43.1386 90.4781 40.578C89.8932 38.0175 89.6007 35.2879 89.6007 32.3894C89.6007 29.4909 89.8932 26.7614 90.4781 24.2008C91.063 21.6402 91.9078 19.2876 93.0126 17.143C94.1174 14.9854 95.4562 13.0552 97.0289 11.3525C98.6147 9.63679 100.389 8.18753 102.352 7.00473C104.327 5.82193 106.485 4.91859 108.824 4.29469C111.177 3.6578 113.66 3.33936 116.272 3.33936C119.691 3.33936 122.829 3.87226 125.689 4.93808C128.561 5.9909 131.09 7.51814 133.273 9.5198C135.47 11.5215 137.289 13.9586 138.732 16.8311C140.175 19.6906 141.176 22.927 141.735 26.5404H131.499C131.083 24.2138 130.44 22.1732 129.569 20.4185C128.711 18.6508 127.645 17.1755 126.371 15.9927C125.098 14.8099 123.616 13.9196 121.926 13.3217C120.249 12.7238 118.371 12.4248 116.292 12.4248C114.576 12.4248 112.977 12.6263 111.495 13.0292C110.014 13.4191 108.662 14.004 107.44 14.7839C106.231 15.5638 105.159 16.5256 104.223 17.6694C103.287 18.8002 102.494 20.1065 101.845 21.5883C101.208 23.07 100.72 24.7142 100.382 26.5209C100.057 28.3276 99.8949 30.2838 99.8949 32.3894Z" fill="#EBF1FF"/>
<defs>
<linearGradient id="paint0_linear_29_591" x1="69.1207" y1="-5.12" x2="-9.27927" y2="73.28" gradientUnits="userSpaceOnUse">
<stop stop-color="#FE89EB"/>
<stop offset="1" stop-color="#C12EAF"/>
</linearGradient>
</defs>
</svg>
