<svg width="336" height="64" viewBox="0 0 336 64" fill="none" xmlns="http://www.w3.org/2000/svg">
<path fill-rule="evenodd" clip-rule="evenodd" d="M62.0806 0C63.141 0 64.0006 0.859613 64.0006 1.92V18.6046C64.0006 19.745 62.6219 20.3161 61.8155 19.5097L44.4909 2.1851C43.6846 1.37874 44.2557 0 45.396 0H62.0806ZM22.7686 2.1851C21.9622 1.37874 22.5333 0 23.6737 0H34.5349C34.8743 0 35.1999 0.134855 35.44 0.374902L63.6257 28.5607C63.8658 28.8007 64.0006 29.1263 64.0006 29.4658V40.3269C64.0006 41.4673 62.6219 42.0384 61.8155 41.232L22.7686 2.1851ZM13.7176 0.374903C13.4776 0.134857 13.152 0 12.8125 0H1.92061C0.860224 0 0.000610352 0.859613 0.000610352 1.92V19.2C0.000610352 19.9069 0.573686 20.48 1.28061 20.48H3.84061C10.2029 20.48 15.3606 25.6377 15.3606 32C15.3606 38.3623 10.2029 43.52 3.84061 43.52H1.28061C0.573686 43.52 0.000610352 44.0931 0.000610352 44.8V62.08C0.000610352 63.1404 0.860224 64 1.92061 64H19.2006C19.9075 64 20.4806 63.4269 20.4806 62.72V60.16C20.4806 53.7977 25.6383 48.64 32.0006 48.64C38.3629 48.64 43.5206 53.7977 43.5206 60.16V62.72C43.5206 63.4269 44.0937 64 44.8006 64H62.0806C63.141 64 64.0006 63.1404 64.0006 62.08V51.1881C64.0006 50.8486 63.8658 50.523 63.6257 50.283L13.7176 0.374903Z" fill="url(#paint0_linear_29_611)"/>
<path d="M292.316 38.7645C292.316 36.4899 292.552 34.3518 293.022 32.3501C293.492 30.3485 294.165 28.5093 295.041 26.8326C295.929 25.1428 297.008 23.6351 298.275 22.3093C299.543 20.9835 300.974 19.8657 302.568 18.9559C304.162 18.033 305.906 17.3312 307.801 16.8503C309.696 16.3563 311.708 16.1094 313.838 16.1094C315.968 16.1094 317.981 16.3563 319.876 16.8503C321.77 17.3312 323.515 18.033 325.109 18.9559C326.703 19.8657 328.134 20.9835 329.402 22.3093C330.669 23.6351 331.741 25.1428 332.616 26.8326C333.505 28.5093 334.185 30.3485 334.655 32.3501C335.125 34.3518 335.361 36.4899 335.361 38.7645C335.361 41.0391 335.125 43.1838 334.655 45.1984C334.185 47.2001 333.505 49.0393 332.616 50.716C331.741 52.3927 330.663 53.894 329.382 55.2197C328.115 56.5455 326.684 57.6698 325.09 58.5927C323.508 59.5155 321.77 60.2174 319.876 60.6983C317.994 61.1922 315.982 61.4392 313.838 61.4392C311.708 61.4392 309.696 61.1922 307.801 60.6983C305.906 60.2174 304.162 59.5155 302.568 58.5927C300.987 57.6698 299.556 56.5455 298.275 55.2197C297.008 53.894 295.929 52.3927 295.041 50.716C294.165 49.0393 293.492 47.2001 293.022 45.1984C292.552 43.1838 292.316 41.0391 292.316 38.7645ZM302.195 38.7645C302.195 40.9612 302.457 42.9303 302.979 44.672C303.515 46.4007 304.286 47.8695 305.292 49.0783C306.299 50.2741 307.52 51.1904 308.958 51.8273C310.408 52.4642 312.042 52.7826 313.858 52.7826C315.674 52.7826 317.301 52.4707 318.739 51.8468C320.176 51.2099 321.391 50.2871 322.385 49.0783C323.391 47.8695 324.155 46.4007 324.678 44.672C325.214 42.9303 325.482 40.9612 325.482 38.7645C325.482 36.5679 325.214 34.6052 324.678 32.8765C324.155 31.1348 323.391 29.6661 322.385 28.4703C321.391 27.2615 320.176 26.3451 318.739 25.7212C317.301 25.0844 315.674 24.7659 313.858 24.7659C312.042 24.7659 310.408 25.0844 308.958 25.7212C307.52 26.3451 306.299 27.2615 305.292 28.4703C304.286 29.6661 303.515 31.1348 302.979 32.8765C302.457 34.6052 302.195 36.5679 302.195 38.7645Z" fill="#171717"/>
<path d="M268.377 16.1094C271.434 16.1094 274.159 16.4473 276.55 17.1232C278.942 17.7991 280.961 18.7674 282.607 20.0282C284.254 21.289 285.502 22.8227 286.351 24.6294C287.213 26.4231 287.645 28.4378 287.645 30.6734H277.981C277.981 29.6206 277.779 28.6717 277.374 27.8269C276.969 26.982 276.361 26.2607 275.551 25.6628C274.754 25.0649 273.76 24.6034 272.571 24.2785C271.395 23.9535 270.036 23.7911 268.494 23.7911C267.135 23.7911 265.887 23.9211 264.75 24.181C263.614 24.428 262.64 24.7854 261.83 25.2533C261.02 25.7212 260.392 26.2801 259.948 26.93C259.504 27.5799 259.282 28.3013 259.282 29.0942C259.282 29.7181 259.406 30.264 259.654 30.7319C259.915 31.1868 260.268 31.5897 260.713 31.9407C261.17 32.2916 261.706 32.5906 262.32 32.8375C262.934 33.0845 263.594 33.3055 264.3 33.5004C265.018 33.6824 265.77 33.8384 266.554 33.9683C267.351 34.0983 268.148 34.2348 268.945 34.3778L271.826 34.8457C273.016 35.0407 274.264 35.2616 275.57 35.5086C276.89 35.7555 278.184 36.0805 279.451 36.4834C280.732 36.8733 281.954 37.3738 283.117 37.9847C284.293 38.5826 285.319 39.3364 286.194 40.2463C287.083 41.1561 287.788 42.2479 288.311 43.5217C288.847 44.7955 289.115 46.2902 289.115 48.006C289.115 50.1506 288.677 52.0548 287.802 53.7185C286.939 55.3822 285.665 56.786 283.979 57.9298C282.307 59.0736 280.235 59.9444 277.766 60.5423C275.296 61.1402 272.454 61.4392 269.239 61.4392C265.881 61.4392 262.928 61.1077 260.379 60.4448C257.831 59.795 255.701 58.8396 253.989 57.5788C252.291 56.305 251.003 54.7453 250.128 52.8996C249.265 51.0539 248.834 48.9288 248.834 46.5242H258.498C258.498 47.681 258.713 48.7078 259.144 49.6047C259.576 50.5015 260.236 51.2554 261.124 51.8663C262.013 52.4772 263.124 52.9386 264.456 53.2506C265.802 53.5625 267.377 53.7185 269.18 53.7185C270.801 53.7185 272.245 53.595 273.512 53.3481C274.78 53.1011 275.851 52.7437 276.727 52.2757C277.615 51.7948 278.288 51.2164 278.746 50.5405C279.216 49.8516 279.451 49.0718 279.451 48.2009C279.451 47.486 279.314 46.8687 279.04 46.3487C278.778 45.8288 278.413 45.3739 277.942 44.984C277.472 44.594 276.91 44.2561 276.256 43.9701C275.603 43.6842 274.884 43.4372 274.1 43.2293C273.316 43.0083 272.48 42.8198 271.591 42.6639C270.716 42.4949 269.814 42.3259 268.886 42.1569L265.985 41.65C264.914 41.4681 263.764 41.2601 262.536 41.0261C261.307 40.7922 260.085 40.4867 258.87 40.1098C257.655 39.7199 256.492 39.2389 255.381 38.667C254.27 38.0821 253.284 37.3673 252.421 36.5224C251.572 35.6646 250.892 34.6507 250.383 33.4809C249.873 32.2981 249.618 30.9009 249.618 29.2891C249.618 27.2745 250.05 25.4548 250.912 23.8301C251.774 22.2053 253.009 20.8211 254.617 19.6773C256.237 18.5335 258.204 17.6561 260.517 17.0452C262.843 16.4213 265.463 16.1094 268.377 16.1094Z" fill="#171717"/>
<path d="M213.702 39.2324C213.702 41.3901 213.983 43.3333 214.545 45.062C215.12 46.7777 215.937 48.2399 216.995 49.4487C218.054 50.6575 219.334 51.5868 220.837 52.2367C222.353 52.8736 224.052 53.1921 225.933 53.1921C227.214 53.1921 228.397 53.0426 229.481 52.7437C230.566 52.4317 231.546 51.9703 232.421 51.3594C233.297 50.7355 234.075 49.9686 234.754 49.0588C235.29 48.3312 235.761 47.5147 236.166 46.6093H245.777C245.2 48.7407 244.362 50.6685 243.261 52.3927C242.046 54.3164 240.563 55.9541 238.811 57.3059C237.073 58.6446 235.094 59.665 232.872 60.3669C230.651 61.0817 228.253 61.4392 225.679 61.4392C222.451 61.4392 219.517 60.8933 216.878 59.8015C214.238 58.7096 211.971 57.1694 210.076 55.1807C208.181 53.1921 206.718 50.8005 205.685 48.006C204.653 45.2114 204.137 42.118 204.137 38.7255C204.137 35.3461 204.646 32.2721 205.666 29.5036C206.698 26.7221 208.149 24.337 210.017 22.3483C211.886 20.3597 214.127 18.8259 216.74 17.7471C219.354 16.6553 222.248 16.1094 225.424 16.1094C228.573 16.1094 231.422 16.6423 233.97 17.7081C236.518 18.7739 238.694 20.2882 240.497 22.2508C242.314 24.2005 243.712 26.5661 244.692 29.3476C245.672 32.1162 246.162 35.2096 246.162 38.628C246.162 39.135 246.149 39.6419 246.123 40.1488C246.11 40.6557 246.07 41.1886 246.005 41.7475H210.899V34.7287H241.046L236.577 41.65C236.616 41.1821 236.642 40.7077 236.655 40.2268C236.681 39.7329 236.695 39.2519 236.695 38.784C236.695 36.4314 236.446 34.3583 235.95 32.5646C235.466 30.7579 234.747 29.2436 233.794 28.0219C232.853 26.7871 231.683 25.8577 230.285 25.2338C228.9 24.5969 227.299 24.2785 225.483 24.2785C223.64 24.2785 221.994 24.5969 220.543 25.2338C219.093 25.8707 217.858 26.8001 216.838 28.0219C215.832 29.2306 215.055 30.7059 214.506 32.4476C213.97 34.1893 213.702 36.152 213.702 38.3356V39.2324Z" fill="#171717"/>
<path d="M190.245 40.1884V17.2798H200.085V60.27H190.245V47.3827L190.304 47.3437C189.821 49.5793 189.115 51.5745 188.187 53.3292C187.26 55.0709 186.129 56.5461 184.796 57.7549C183.463 58.9507 181.941 59.8606 180.229 60.4845C178.517 61.1213 176.655 61.4398 174.643 61.4398C172.238 61.4398 170.102 61.0044 168.233 60.1335C166.365 59.2497 164.79 57.9694 163.509 56.2927C162.242 54.6159 161.268 52.5558 160.589 50.1122C159.922 47.6686 159.589 44.8936 159.589 41.7871V17.2798H169.429V40.8123C169.429 42.814 169.625 44.5622 170.017 46.0569C170.422 47.5386 171.03 48.7799 171.84 49.7808C172.663 50.7816 173.682 51.5355 174.898 52.0424C176.113 52.5363 177.537 52.7833 179.171 52.7833C180.347 52.7833 181.431 52.6598 182.425 52.4128C183.418 52.1529 184.326 51.7824 185.149 51.3015C185.972 50.8206 186.698 50.2227 187.325 49.5078C187.965 48.7929 188.501 47.9676 188.932 47.0317C189.363 46.0959 189.69 45.0561 189.912 43.9123C190.134 42.7685 190.245 41.5272 190.245 40.1884Z" fill="#171717"/>
<path d="M154.852 2.56006V60.2703H145.013V2.56006H154.852Z" fill="#171717"/>
<path d="M97.3901 32.3894C97.3901 34.4951 97.5535 36.4512 97.8801 38.2579C98.2199 40.0646 98.7099 41.7088 99.3502 43.1906C100.004 44.6723 100.801 45.9851 101.742 47.1289C102.682 48.2597 103.761 49.2151 104.976 49.9949C106.204 50.7748 107.563 51.3662 109.053 51.7691C110.543 52.1591 112.15 52.354 113.875 52.354C115.966 52.354 117.854 52.0551 119.54 51.4572C121.238 50.8593 122.728 49.9689 124.009 48.7861C125.289 47.6033 126.361 46.1346 127.223 44.3799C128.099 42.6122 128.746 40.565 129.164 38.2384H139.454C138.893 41.8518 137.886 45.0948 136.436 47.9673C134.985 50.8268 133.156 53.2574 130.947 55.259C128.752 57.2607 126.21 58.7944 123.323 59.8603C120.448 60.9131 117.292 61.4395 113.855 61.4395C111.229 61.4395 108.733 61.121 106.367 60.4841C104.015 59.8603 101.846 58.9569 99.8599 57.7741C97.8867 56.5913 96.103 55.1486 94.5087 53.4458C92.9276 51.7301 91.5816 49.8 90.4709 47.6553C89.3601 45.4977 88.5107 43.1386 87.9227 40.578C87.3347 38.0175 87.0406 35.2879 87.0406 32.3894C87.0406 29.4909 87.3347 26.7614 87.9227 24.2008C88.5107 21.6402 89.3601 19.2876 90.4709 17.143C91.5816 14.9854 92.9276 13.0552 94.5087 11.3525C96.103 9.63679 97.8867 8.18753 99.8599 7.00473C101.846 5.82193 104.015 4.91859 106.367 4.29469C108.733 3.6578 111.229 3.33936 113.855 3.33936C117.292 3.33936 120.448 3.87226 123.323 4.93808C126.21 5.9909 128.752 7.51814 130.947 9.5198C133.156 11.5215 134.985 13.9586 136.436 16.8311C137.886 19.6906 138.893 22.927 139.454 26.5404H129.164C128.746 24.2138 128.099 22.1732 127.223 20.4185C126.361 18.6508 125.289 17.1755 124.009 15.9927C122.728 14.8099 121.238 13.9196 119.54 13.3217C117.854 12.7238 115.966 12.4248 113.875 12.4248C112.15 12.4248 110.543 12.6263 109.053 13.0292C107.563 13.4191 106.204 14.004 104.976 14.7839C103.761 15.5638 102.682 16.5256 101.742 17.6694C100.801 18.8002 100.004 20.1065 99.3502 21.5883C98.7099 23.07 98.2199 24.7142 97.8801 26.5209C97.5535 28.3276 97.3901 30.2838 97.3901 32.3894Z" fill="#171717"/>
<defs>
<linearGradient id="paint0_linear_29_611" x1="69.1206" y1="-5.12" x2="-9.27939" y2="73.28" gradientUnits="userSpaceOnUse">
<stop stop-color="#FE89EB"/>
<stop offset="1" stop-color="#C12EAF"/>
</linearGradient>
</defs>
</svg>
